Coordinates
version=1
nRows=54
nColumns=12
inDegrees=yes

Units are S.I. units (second, meters, Newtons, ...)
Angles are in degrees

endheader
time	SC_y	SC_z	SC_x	AC_y	AC_z	AC_x	GH_y	GH_z	GH_yy	EL_x	PS_y
       0.0               -48.4          27.77          33.84          32.67         -16.84          5.137         -6.714          19.07          24.59          73.56          8.479
 0.0002846               -48.4          27.77          33.85          32.68         -16.84          5.136         -6.721          19.07           24.6          73.55          8.497
 0.0005692               -48.4          27.77          33.86          32.68         -16.84          5.135         -6.728          19.06          24.61          73.55          8.517
 0.0008539               -48.4          27.76          33.86          32.68         -16.83          5.134         -6.736          19.06          24.62          73.54          8.537
  0.001138               -48.4          27.76          33.87          32.68         -16.83          5.133         -6.744          19.06          24.64          73.53          8.559
  0.001423              -48.39          27.75          33.88          32.69         -16.83          5.132         -6.753          19.05          24.65          73.53          8.582
  0.001708              -48.39          27.74          33.88          32.69         -16.82          5.131         -6.762          19.05          24.67          73.52          8.607
  0.001992              -48.39          27.74          33.89          32.69         -16.82           5.13         -6.772          19.04          24.69          73.51          8.633
  0.002277              -48.39          27.73           33.9           32.7         -16.81          5.129         -6.783          19.04          24.71           73.5          8.661
  0.002562              -48.39          27.73          33.91           32.7         -16.81          5.127         -6.795          19.03          24.73          73.49          8.692
  0.002846              -48.39          27.72          33.92           32.7          -16.8          5.126         -6.807          19.02          24.75          73.48          8.724
  0.003131              -48.39          27.71          33.93          32.71          -16.8          5.124          -6.82          19.02          24.77          73.47           8.76
  0.003415              -48.38           27.7          33.95          32.71         -16.79          5.123         -6.835          19.01          24.79          73.46          8.797
    0.0037              -48.38          27.69          33.96          32.72         -16.78          5.121          -6.85           19.0          24.82          73.45          8.838
  0.003985              -48.38          27.68          33.97          32.72         -16.78          5.119         -6.867          18.99          24.85          73.44          8.883
  0.004269              -48.38          27.67          33.99          32.73         -16.77          5.117         -6.885          18.98          24.88          73.42          8.931
  0.004554              -48.38          27.66           34.0          32.73         -16.76          5.114         -6.905          18.97          24.92          73.41          8.983
  0.004839              -48.37          27.65          34.02          32.74         -16.75          5.112         -6.927          18.96          24.95          73.39           9.04
  0.005123              -48.37          27.63          34.04          32.75         -16.74          5.109          -6.95          18.95          24.99          73.37          9.102
  0.005408              -48.37          27.62          34.06          32.76         -16.73          5.106         -6.976          18.93          25.04          73.35           9.17
  0.005692              -48.36           27.6          34.09          32.77         -16.71          5.103         -7.004          18.92          25.09          73.33          9.244
  0.005977              -48.36          27.58          34.11          32.78          -16.7          5.099         -7.036           18.9          25.14           73.3          9.326
  0.006262              -48.36          27.56          34.14          32.79         -16.68          5.095          -7.07          18.88           25.2          73.28          9.417
  0.006546              -48.35          27.54          34.17           32.8         -16.67          5.091         -7.108          18.86          25.27          73.25          9.518
  0.006831              -48.35          27.51          34.21          32.81         -16.65          5.086         -7.151          18.84          25.34          73.21          9.629
  0.007115              -48.34          27.48          34.25          32.83         -16.63           5.08         -7.198          18.81          25.42          73.18          9.754
    0.0074              -48.34          27.45          34.29          32.84          -16.6          5.074         -7.251          18.78          25.51          73.13          9.894
  0.007685              -48.33          27.42          34.34          32.86         -16.58          5.067         -7.311          18.75          25.61          73.09          10.05
  0.007969              -48.32          27.38           34.4          32.88         -16.55          5.059         -7.378          18.72          25.73          73.03          10.23
  0.008254              -48.31          27.33          34.46          32.91         -16.51           5.05         -7.455          18.68          25.86          72.97          10.43
  0.008539               -48.3          27.28          34.54          32.94         -16.47           5.04         -7.542          18.63          26.01           72.9          10.66
  0.008823              -48.29          27.22          34.62          32.97         -16.43          5.028         -7.642          18.57          26.18          72.82          10.92
  0.009108              -48.28          27.15          34.72           33.0         -16.38          5.015         -7.758          18.51          26.38          72.73          11.23
  0.009392              -48.26          27.07          34.83          33.05         -16.32          4.999         -7.893          18.44          26.62          72.63          11.58
  0.009677              -48.24          26.98          34.96           33.1         -16.25          4.981          -8.05          18.36          26.89           72.5           12.0
  0.009962              -48.22          26.86          35.12          33.16         -16.17          4.959         -8.236          18.26          27.21          72.36          12.49
   0.01025              -48.19          26.73           35.3          33.23         -16.07          4.933         -8.456          18.14          27.59          72.18          13.07
   0.01053              -48.16          26.58          35.52          33.31         -15.95          4.903          -8.72           18.0          28.04          71.97          13.76
   0.01082              -48.12          26.38          35.79          33.41         -15.81          4.865          -9.04          17.82          28.59          71.72           14.6
    0.0111              -48.08          26.15          36.12          33.54         -15.63           4.82         -9.431          17.62          29.26          71.41          15.63
   0.01138              -48.02          25.86          36.52          33.69         -15.42          4.763         -9.913          17.36          30.09          71.03           16.9
   0.01167              -47.95           25.5          37.02          33.88         -15.15          4.693         -10.51          17.03          31.13          70.56          18.48
   0.01195              -47.86          25.05          37.66          34.12         -14.81          4.605         -11.27          16.63          32.43          69.96          20.48
   0.01224              -47.74          24.48          38.46          34.43         -14.38          4.493         -12.23          16.11          34.09           69.2          23.01
   0.01252               -47.6          23.74          39.49          34.82         -13.83          4.349         -13.47          15.45          36.21          68.23          26.26
   0.01281              -47.41           22.8          40.81          35.32         -13.13          4.164         -15.05           14.6          38.93          66.98          30.42
   0.01309              -47.17          21.59           42.5          35.96         -12.23          3.929         -17.07          13.52          42.41          65.38          35.74
   0.01338              -46.87          20.07          44.63          36.77          -11.1          3.632         -19.61          12.16          46.78          63.38          42.42
   0.01366               -46.5          18.23          47.22          37.75         -9.717          3.271          -22.7           10.5           52.1          60.93          50.57
   0.01395              -46.08          16.08          50.22          38.89         -8.118          2.853         -26.29          8.576          58.28           58.1          60.02
   0.01423              -45.62          13.76          53.47          40.12         -6.387            2.4         -30.18          6.493          64.96          55.04          70.25
   0.01452              -45.16          11.44          56.72          41.36         -4.655          1.946         -34.06           4.41          71.65          51.97          80.47
    0.0148              -44.73          9.302          59.72           42.5         -3.056          1.528         -37.65          2.486          77.82          49.14          89.92
   0.01508              -44.36          7.454           62.3          43.48         -1.677          1.167         -40.74          0.827          83.15          46.69          98.07
